<svg width="1273.327197265625px" height="308.9600036621094px" xmlns="http://www.w3.org/2000/svg" viewBox="-386.6635986328125 -79.4800018310547 1273.327197265625 308.9600036621094" style="background: rgba(0, 0, 0, 0);" preserveAspectRatio="xMidYMid"><defs><filter id="editing-hole" x="-100%" y="-100%" width="300%" height="300%"><feFlood flood-color="#000" result="black"></feFlood><feMorphology operator="dilate" radius="2" in="SourceGraphic" result="erode"></feMorphology><feGaussianBlur in="erode" stdDeviation="4" result="blur"></feGaussianBlur><feOffset in="blur" dx="2" dy="2" result="offset"></feOffset><feComposite operator="atop" in="offset" in2="black" result="merge"></feComposite><feComposite operator="in" in="merge" in2="SourceGraphic" result="inner-shadow"></feComposite></filter></defs><g filter="url(#editing-hole)"><g transform="translate(-200.56643390655518, 151.00000381469727)"><path d="M73.60-4L73.60-4Q68.60-3.20 62.60-2.20L62.60-2.20L62.60-2.20Q56.60-1.20 51.80-0.40L51.80-0.40L51.80-0.40Q52.60-7 53.40-13.40L53.40-13.40L53.40-13.40Q54-19 54.50-24.60L54.50-24.60L54.50-24.60Q55-30.20 55.40-34.20L55.40-34.20L38-34.20L30-5.40L30-5.40Q25.60-4.80 19.60-4.10L19.60-4.10L19.60-4.10Q13.60-3.40 8.40-2.80L8.40-2.80L8.40-2.80Q2-2-4.20-1.20L-4.20-1.20L-4.20-1.20Q3.80-27.80 11.60-53.60L11.60-53.60L11.60-53.60Q14.80-64.40 18.30-76.20L18.30-76.20L18.30-76.20Q21.80-88 25.30-99.70L25.30-99.70L25.30-99.70Q28.80-111.40 32-122.20L32-122.20L32-122.20Q35.20-133 37.60-142L37.60-142L37.60-142Q51.20-143 65.30-144.40L65.30-144.40L65.30-144.40Q79.40-145.80 92.80-148.20L92.80-148.20L92.80-148.20Q92.20-141.80 91.50-132.30L91.50-132.30L91.50-132.30Q90.80-122.80 90.20-111.60L90.20-111.60L90.20-111.60Q89.60-100.40 89-88.20L89-88.20L89-88.20Q88.40-76 87.80-64.20L87.80-64.20L87.80-64.20Q86.80-36.60 85.60-5.60L85.60-5.60L85.60-5.60Q79.60-4.60 73.60-4L73.60-4ZM55.20-104.40L42.80-54.20L42.80-54.20Q43.60-54.20 45.70-54.30L45.70-54.30L45.70-54.30Q47.80-54.40 50.10-54.50L50.10-54.50L50.10-54.50Q52.40-54.60 54.40-54.70L54.40-54.70L54.40-54.70Q56.40-54.80 57.20-55L57.20-55L57.20-55Q57.20-56.20 57.50-59.10L57.50-59.10L57.50-59.10Q57.80-62 58.10-65.70L58.10-65.70L58.10-65.70Q58.40-69.40 58.80-73.80L58.80-73.80L58.80-73.80Q59.20-78.20 59.60-82.40L59.60-82.40L59.60-82.40Q60.40-92.60 61.60-104.40L61.60-104.40L62.80-121.80L59.80-121.60L55.20-104.40ZM141.80-6.40L141.80-6.40Q135.60-6.40 128.70-6L128.70-6L128.70-6Q121.80-5.60 114.80-4.80L114.80-4.80L114.80-4.80Q107.80-4 101.10-2.70L101.10-2.70L101.10-2.70Q94.40-1.40 89.00 0.40L89.00 0.40L89.00 0.40Q90.20-8.60 91.80-19.60L91.80-19.60L91.80-19.60Q93.40-30.60 95.50-42.40L95.50-42.40L95.50-42.40Q97.60-54.20 99.70-66.20L99.70-66.20L99.70-66.20Q101.80-78.20 104.00-89.20L104.00-89.20L104.00-89.20Q109.00-115.40 114.60-142.60L114.60-142.60L149.60-147.20L149.60-147.20Q144.20-124 139.20-102L139.20-102L139.20-102Q137-92.60 134.80-82.50L134.80-82.50L134.80-82.50Q132.60-72.40 130.60-62.80L130.60-62.80L130.60-62.80Q128.60-53.20 127.00-44.20L127.00-44.20L127.00-44.20Q125.40-35.20 124.40-28.20L124.40-28.20L124.40-28.20Q129.40-28.60 135.10-28.70L135.10-28.70L135.10-28.70Q140.80-28.80 145.20-28.80L145.20-28.80L145.20-28.80Q145.40-25 145.80-21.30L145.80-21.30L145.80-21.30Q146.20-17.60 146.70-14.60L146.70-14.60L146.70-14.60Q147.20-11.60 147.50-9.30L147.50-9.30L147.50-9.30Q147.80-7 148-6.20L148-6.20L148-6.20Q146.40-6.20 144.90-6.30L144.90-6.30L144.90-6.30Q143.40-6.40 141.80-6.40L141.80-6.40ZM171.60-4.80L171.60-4.80Q166-3.80 159.40-2.40L159.40-2.40L159.40-2.40Q152.80-1 147.80 0.20L147.80 0.20L147.80 0.20Q150.20-8.40 152.50-19.10L152.50-19.10L152.50-19.10Q154.80-29.80 157.10-41.60L157.10-41.60L157.10-41.60Q159.40-53.40 161.50-65.50L161.50-65.50L161.50-65.50Q163.60-77.60 165.60-88.80L165.60-88.80L165.60-88.80Q169.80-115.40 174-143.80L174-143.80L241-147.20L235.20-122.60L203.80-122.60L197.60-87L197.60-87Q203.80-87.20 209.40-87.20L209.40-87.20L209.40-87.20Q214-87.20 218.80-87.20L218.80-87.20L218.80-87.20Q223.60-87.20 226.20-87.40L226.20-87.40L226.20-87.40Q225.60-81.80 224.70-76.40L224.70-76.40L224.70-76.40Q223.80-71 223-65.60L223-65.60L223-65.60Q220.40-65.60 215.60-65.70L215.60-65.70L215.60-65.70Q210.80-65.80 205.70-66L205.70-66L205.70-66Q200.60-66.20 194.20-66.40L194.20-66.40L185-7.40L185-7.40Q178.20-6.20 171.60-4.80L171.60-4.80ZM288.80-4L288.80-4Q283.80-3.20 277.80-2.20L277.80-2.20L277.80-2.20Q271.80-1.20 267-0.40L267-0.40L267-0.40Q267.80-7 268.60-13.40L268.60-13.40L268.60-13.40Q269.20-19 269.70-24.60L269.70-24.60L269.70-24.60Q270.20-30.20 270.60-34.20L270.60-34.20L253.20-34.20L245.20-5.40L245.20-5.40Q240.80-4.80 234.80-4.10L234.80-4.10L234.80-4.10Q228.80-3.40 223.60-2.80L223.60-2.80L223.60-2.80Q217.20-2 211-1.20L211-1.20L211-1.20Q219-27.80 226.80-53.60L226.80-53.60L226.80-53.60Q230-64.40 233.50-76.20L233.50-76.20L233.50-76.20Q237-88 240.50-99.70L240.50-99.70L240.50-99.70Q244-111.40 247.20-122.20L247.20-122.20L247.20-122.20Q250.40-133 252.80-142L252.80-142L252.80-142Q266.40-143 280.50-144.40L280.50-144.40L280.50-144.40Q294.60-145.80 308-148.20L308-148.20L308-148.20Q307.40-141.80 306.70-132.30L306.70-132.30L306.70-132.30Q306-122.80 305.40-111.60L305.40-111.60L305.40-111.60Q304.80-100.40 304.20-88.20L304.20-88.20L304.20-88.20Q303.60-76 303-64.20L303-64.20L303-64.20Q302-36.60 300.80-5.60L300.80-5.60L300.80-5.60Q294.80-4.60 288.80-4L288.80-4ZM270.40-104.40L258-54.20L258-54.20Q258.80-54.20 260.90-54.30L260.90-54.30L260.90-54.30Q263-54.40 265.30-54.50L265.30-54.50L265.30-54.50Q267.60-54.60 269.60-54.70L269.60-54.70L269.60-54.70Q271.60-54.80 272.40-55L272.40-55L272.40-55Q272.40-56.20 272.70-59.10L272.70-59.10L272.70-59.10Q273-62 273.30-65.70L273.30-65.70L273.30-65.70Q273.60-69.40 274-73.80L274-73.80L274-73.80Q274.40-78.20 274.80-82.40L274.80-82.40L274.80-82.40Q275.60-92.60 276.80-104.40L276.80-104.40L278-121.80L275-121.60L270.40-104.40ZM388-8L388-8Q386.20-8 380.40-7.80L380.40-7.80L380.40-7.80Q374.60-7.60 366.70-7.20L366.70-7.20L366.70-7.20Q358.80-6.80 349.60-6.20L349.60-6.20L349.60-6.20Q340.40-5.60 331.60-4.90L331.60-4.90L331.60-4.90Q322.80-4.20 315.30-3.40L315.30-3.40L315.30-3.40Q307.80-2.60 303.40-1.80L303.40-1.80L303.60-31L360.40-108.40L360.40-108.40Q357-108.40 350.80-107.70L350.80-107.70L350.80-107.70Q344.60-107 338.30-106.20L338.30-106.20L338.30-106.20Q332-105.40 327.40-104.60L327.40-104.60L322.60-104.20L326.40-135.60L408.20-141.40L403-113.80L348.40-36.20L348.40-36.20Q352.40-36.20 359.10-36.60L359.10-36.60L359.10-36.60Q365.80-37 373-37.40L373-37.40L373-37.40Q380.20-37.80 388.60-38.40L388.60-38.40L388-8ZM500.60-4L500.60-4Q495.60-3.20 489.60-2.20L489.60-2.20L489.60-2.20Q483.60-1.20 478.80-0.40L478.80-0.40L478.80-0.40Q479.60-7 480.40-13.40L480.40-13.40L480.40-13.40Q481-19 481.50-24.60L481.50-24.60L481.50-24.60Q482-30.20 482.40-34.20L482.40-34.20L465-34.20L457-5.40L457-5.40Q452.60-4.80 446.60-4.10L446.60-4.10L446.60-4.10Q440.60-3.40 435.40-2.80L435.40-2.80L435.40-2.80Q429-2 422.80-1.20L422.80-1.20L422.80-1.20Q430.80-27.80 438.60-53.60L438.60-53.60L438.60-53.60Q441.80-64.40 445.30-76.20L445.30-76.20L445.30-76.20Q448.80-88 452.30-99.70L452.30-99.70L452.30-99.70Q455.80-111.40 459-122.20L459-122.20L459-122.20Q462.20-133 464.60-142L464.60-142L464.60-142Q478.20-143 492.30-144.40L492.30-144.40L492.30-144.40Q506.40-145.80 519.80-148.20L519.80-148.20L519.80-148.20Q519.20-141.80 518.50-132.30L518.50-132.30L518.50-132.30Q517.80-122.80 517.20-111.60L517.20-111.60L517.20-111.60Q516.60-100.40 516-88.20L516-88.20L516-88.20Q515.40-76 514.80-64.20L514.80-64.20L514.80-64.20Q513.80-36.60 512.60-5.60L512.60-5.60L512.60-5.60Q506.60-4.60 500.60-4L500.60-4ZM482.20-104.40L469.80-54.20L469.80-54.20Q470.60-54.20 472.70-54.30L472.70-54.30L472.70-54.30Q474.80-54.40 477.10-54.50L477.10-54.50L477.10-54.50Q479.40-54.60 481.40-54.70L481.40-54.70L481.40-54.70Q483.40-54.80 484.20-55L484.20-55L484.20-55Q484.20-56.20 484.50-59.10L484.50-59.10L484.50-59.10Q484.80-62 485.10-65.70L485.10-65.70L485.10-65.70Q485.40-69.40 485.80-73.80L485.80-73.80L485.80-73.80Q486.20-78.20 486.60-82.40L486.60-82.40L486.60-82.40Q487.40-92.60 488.60-104.40L488.60-104.40L489.80-121.80L486.80-121.60L482.20-104.40ZM546-6L515.20 0.40L515.20 0.40Q520.80-27.60 526-54.20L526-54.20L526-54.20Q528-65.60 530.20-77.90L530.20-77.90L530.20-77.90Q532.40-90.20 534.30-102.20L534.30-102.20L534.30-102.20Q536.20-114.20 537.90-125.50L537.90-125.50L537.90-125.50Q539.60-136.80 540.60-146L540.60-146L540.60-146Q545.20-145.80 549.10-145.50L549.10-145.50L549.10-145.50Q553-145.20 556.80-145L556.80-145L556.80-145Q560.60-144.80 564.50-144.70L564.50-144.70L564.50-144.70Q568.40-144.60 573-144.60L573-144.60L573-144.60Q569.60-130.40 566.30-116.20L566.30-116.20L566.30-116.20Q563-102 560.20-87.60L560.20-87.60L580-89.80L580-89.80Q582.80-104 585-117.30L585-117.30L585-117.30Q587.20-130.60 590.80-144.80L590.80-144.80L590.80-144.80Q595.40-145.60 601-146.10L601-146.10L601-146.10Q606.60-146.60 611.40-147L611.40-147L611.40-147Q616.20-147.40 619.50-147.70L619.50-147.70L619.50-147.70Q622.80-148 622.80-148L622.80-148L622.80-148Q620-139 617.50-128.30L617.50-128.30L617.50-128.30Q615-117.60 612.60-106.10L612.60-106.10L612.60-106.10Q610.20-94.60 608-82.80L608-82.80L608-82.80Q605.80-71 604-60.40L604-60.40L604-60.40Q599.60-35 595.80-8.40L595.80-8.40L564.60-4.80L564.60-4.80Q567.20-16.80 569.20-28.20L569.20-28.20L569.20-28.20Q571.20-37.80 573.30-48.20L573.30-48.20L573.30-48.20Q575.40-58.60 576.60-66L576.60-66L557.20-64.20L557.20-64.20Q555.80-56.60 553.90-46.60L553.90-46.60L553.90-46.60Q552-36.60 550.40-27.60L550.40-27.60L550.40-27.60Q548.20-16.80 546-6L546-6ZM628.80-3.40L595.80-1.20L595.80-1.20Q604.60-27.80 612.60-53.40L612.60-53.40L612.60-53.40Q616.00-64.20 619.60-76L619.60-76L619.60-76Q623.20-87.80 626.80-99.40L626.80-99.40L626.80-99.40Q630.40-111 633.50-121.80L633.50-121.80L633.50-121.80Q636.60-132.60 639.00-141.80L639.00-141.80L639.00-141.80Q650.00-141.80 659.80-143L659.80-143L659.80-143Q669.60-144.20 681.00-145.20L681.00-145.20L681.00-145.20Q680.40-140.80 679.70-135.30L679.70-135.30L679.70-135.30Q679.00-129.80 678.10-123.80L678.10-123.80L678.10-123.80Q677.20-117.80 676.20-111.40L676.20-111.40L676.20-111.40Q675.20-105 673.80-95L673.80-95L673.80-95Q672.40-85 670.00-70L670.00-70L672.60-70L672.60-70Q678.40-85.20 682.20-95.30L682.20-95.30L682.20-95.30Q686.00-105.40 688.40-111.80L688.40-111.80L688.40-111.80Q690.80-118.20 693.30-124.30L693.30-124.30L693.30-124.30Q695.80-130.40 698.10-135.90L698.10-135.90L698.10-135.90Q700.40-141.40 702.40-145.60L702.40-145.60L702.40-145.60Q707.40-146 711.80-146.60L711.80-146.60L711.80-146.60Q716.20-147.20 720.60-147.90L720.60-147.90L720.60-147.90Q725.00-148.60 729.50-149.30L729.50-149.30L729.50-149.30Q734.00-150 739.40-151L739.40-151L739.40-151Q737.40-139.40 735.60-127.20L735.60-127.20L735.60-127.20Q733.80-115 732.40-102.90L732.40-102.90L732.40-102.90Q731.00-90.80 729.70-79L729.70-79L729.70-79Q728.40-67.20 727.40-56.60L727.40-56.60L727.40-56.60Q725.00-31.80 723.20-8.20L723.20-8.20L688.40-2L688.40-2Q688.40-3 688.70-7.40L688.70-7.40L688.70-7.40Q689.00-11.80 689.50-18.20L689.50-18.20L689.50-18.20Q690.00-24.60 690.90-32.40L690.90-32.40L690.90-32.40Q691.80-40.20 692.70-48L692.70-48L692.70-48Q693.60-55.80 694.60-63.10L694.60-63.10L694.60-63.10Q695.60-70.40 696.60-75.60L696.60-75.60L694.80-75.60L694.80-75.60Q692.00-67.20 688.60-57.90L688.60-57.90L688.60-57.90Q685.20-48.60 681.70-39L681.70-39L681.70-39Q678.20-29.40 674.80-20.20L674.80-20.20L674.80-20.20Q671.40-11 668.80-2.60L668.80-2.60L668.80-2.60Q661.80-2.40 656.80-2.10L656.80-2.10L656.80-2.10Q651.80-1.80 645.20-1.40L645.20-1.40L651.60-75.60L648.60-75.60L648.60-75.60Q648.20-73 646.60-66.90L646.60-66.90L646.60-66.90Q645.00-60.80 642.90-52.90L642.90-52.90L642.90-52.90Q640.80-45 638.40-36.50L638.40-36.50L638.40-36.50Q636.00-28 633.90-20.70L633.90-20.70L633.90-20.70Q631.80-13.40 630.40-8.70L630.40-8.70L630.40-8.70Q629.00-4 628.80-3.40L628.80-3.40ZM799.20-4L799.20-4Q794.20-3.20 788.20-2.20L788.20-2.20L788.20-2.20Q782.20-1.20 777.40-0.40L777.40-0.40L777.40-0.40Q778.20-7 779.00-13.40L779.00-13.40L779.00-13.40Q779.60-19 780.10-24.60L780.10-24.60L780.10-24.60Q780.60-30.20 781.00-34.20L781.00-34.20L763.60-34.20L755.60-5.40L755.60-5.40Q751.20-4.80 745.20-4.10L745.20-4.10L745.20-4.10Q739.20-3.40 734.00-2.80L734.00-2.80L734.00-2.80Q727.60-2 721.40-1.20L721.40-1.20L721.40-1.20Q729.40-27.80 737.20-53.60L737.20-53.60L737.20-53.60Q740.40-64.40 743.90-76.20L743.90-76.20L743.90-76.20Q747.40-88 750.90-99.70L750.90-99.70L750.90-99.70Q754.40-111.40 757.60-122.20L757.60-122.20L757.60-122.20Q760.80-133 763.20-142L763.20-142L763.20-142Q776.80-143 790.90-144.40L790.90-144.40L790.90-144.40Q805.00-145.80 818.40-148.20L818.40-148.20L818.40-148.20Q817.80-141.80 817.10-132.30L817.10-132.30L817.10-132.30Q816.40-122.80 815.80-111.60L815.80-111.60L815.80-111.60Q815.20-100.40 814.60-88.20L814.60-88.20L814.60-88.20Q814.00-76 813.40-64.20L813.40-64.20L813.40-64.20Q812.40-36.60 811.20-5.60L811.20-5.60L811.20-5.60Q805.20-4.60 799.20-4L799.20-4ZM780.80-104.40L768.40-54.20L768.40-54.20Q769.20-54.20 771.30-54.30L771.30-54.30L771.30-54.30Q773.40-54.40 775.70-54.50L775.70-54.50L775.70-54.50Q778.00-54.60 780.00-54.70L780.00-54.70L780.00-54.70Q782.00-54.80 782.80-55L782.80-55L782.80-55Q782.80-56.20 783.10-59.10L783.10-59.10L783.10-59.10Q783.40-62 783.70-65.70L783.70-65.70L783.70-65.70Q784.00-69.40 784.40-73.80L784.40-73.80L784.40-73.80Q784.80-78.20 785.20-82.40L785.20-82.40L785.20-82.40Q786.00-92.60 787.20-104.40L787.20-104.40L788.40-121.80L785.40-121.60L780.80-104.40ZM914.00-102.20L914.00-102.20Q914.00-91.80 911.00-80.10L911.00-80.10L911.00-80.10Q908.00-68.40 902.60-56.90L902.60-56.90L902.60-56.90Q897.20-45.40 889.30-34.90L889.30-34.90L889.30-34.90Q881.40-24.40 871.40-16.50L871.40-16.50L871.40-16.50Q861.40-8.60 849.50-3.80L849.50-3.80L849.50-3.80Q837.60 1 824.20 1L824.20 1L824.20 1Q821.40 1 818.60 0.70L818.60 0.70L818.60 0.70Q815.80 0.40 813.00 0L813.00 0L813.00 0Q818.40-27.60 823.60-53.80L823.60-53.80L823.60-53.80Q825.60-64.80 827.80-76.70L827.80-76.70L827.80-76.70Q830.00-88.60 832.00-100.20L832.00-100.20L832.00-100.20Q834.00-111.80 835.90-122.40L835.90-122.40L835.90-122.40Q837.80-133 839.00-141.60L839.00-141.60L839.00-141.60Q847.60-143.20 856.40-144.60L856.40-144.60L856.40-144.60Q865.20-146 874.40-146L874.40-146L874.40-146Q885.20-146 892.70-142.60L892.70-142.60L892.70-142.60Q900.20-139.20 904.90-133.20L904.90-133.20L904.90-133.20Q909.60-127.20 911.80-119.20L911.80-119.20L911.80-119.20Q914.00-111.20 914.00-102.20L914.00-102.20ZM866.80-117.80L866.80-117.80Q864.60-106 862.20-95.20L862.20-95.20L862.20-95.20Q859.80-84.40 857.40-73.40L857.40-73.40L857.40-73.40Q855.00-62.40 852.60-50.40L852.60-50.40L852.60-50.40Q850.20-38.40 848.00-24.20L848.00-24.20L848.00-24.20Q852.80-27.40 857.30-32.90L857.30-32.90L857.30-32.90Q861.80-38.40 865.80-45.60L865.80-45.60L865.80-45.60Q869.80-52.80 873.10-60.80L873.10-60.80L873.10-60.80Q876.40-68.80 878.80-76.40L878.80-76.40L878.80-76.40Q881.20-84 882.50-90.60L882.50-90.60L882.50-90.60Q883.80-97.20 883.80-102L883.80-102L883.80-102Q883.80-109.40 879.70-113.60L879.70-113.60L879.70-113.60Q875.60-117.80 866.80-117.80L866.80-117.80Z" fill="#ccc"></path></g></g><style>text {
  font-size: 64px;
  font-family: Arial Black;
  dominant-baseline: central;
  text-anchor: middle;
}</style></svg>